# xmcd
#
# Track frame offsets:
#	150
#	16341
#	26641
#	43624
#	57117
#	72201
#	88439
#	102916
#	114039
#	127149
#	139035
#	155638
#	171861
#	182105
#	198470
#	214219
#
# Disc length: 3100 seconds
#
# Revision: 0
# Processed by: cddbd v1.5.2PL0 Copyright (c) Steve Scherf et al.
# Submitted via: EasyCDDAExtractor 10.0.3.1
#
DISCID=e60c1a10
DTITLE=Christy Power - Christy Power (Ireland)
DYEAR=2007
DGENRE=Pop
TTITLE0=Only Our Rivers Run Free
TTITLE1=Mr Blue
TTITLE2=Permanent Tear
TTITLE3=The Song Of Mira (Tom Power)
TTITLE4=Brown Eyed Girl
TTITLE5=The Wild Rover
TTITLE6=End Of A  Perfect Day (Comp. Christy Power)
TTITLE7=Away To Mary Anne
TTITLE8=I Can See Clearly Now
TTITLE9=You're Sixteen
TTITLE10=The Road By The River
TTITLE11=Young At Heart
TTITLE12=Concrete And Clay
TTITLE13=The River
TTITLE14=Forever And Amen
TTITLE15=Forever In Blue Jeans
EXTD=
EXTT0=
EXTT1=
EXTT2=
EXTT3=
EXTT4=
EXTT5=
EXTT6=
EXTT7=
EXTT8=
EXTT9=
EXTT10=
EXTT11=
EXTT12=
EXTT13=
EXTT14=
EXTT15=
PLAYORDER=
